{
	"asset":{
		"generator":"Khronos glTF Blender I/O v4.2.57",
		"version":"2.0"
	},
	"extensionsUsed":[
		"KHR_materials_specular",
		"KHR_materials_ior"
	],
	"scene":0,
	"scenes":[
		{
			"name":"Scene",
			"nodes":[
				0
			]
		}
	],
	"nodes":[
		{
			"mesh":0,
			"name":"Tree-03-1",
			"translation":[
				23.39203643798828,
				0,
				2.600653648376465
			]
		}
	],
	"materials":[
		{
			"doubleSided":true,
			"extensions":{
				"KHR_materials_specular":{
					"specularFactor":0
				},
				"KHR_materials_ior":{
					"ior":1.4500000476837158
				}
			},
			"name":"trunk-01",
			"pbrMetallicRoughness":{
				"baseColorTexture":{
					"index":0
				},
				"metallicFactor":0,
				"roughnessFactor":0.3431818187236786
			}
		},
		{
			"alphaMode":"BLEND",
			"doubleSided":true,
			"extensions":{
				"KHR_materials_specular":{
					"specularFactor":0
				},
				"KHR_materials_ior":{
					"ior":1.4500000476837158
				}
			},
			"name":"branch-01",
			"pbrMetallicRoughness":{
				"baseColorTexture":{
					"index":1
				},
				"metallicFactor":0
			}
		},
		{
			"alphaMode":"BLEND",
			"doubleSided":true,
			"extensions":{
				"KHR_materials_specular":{
					"specularFactor":0
				},
				"KHR_materials_ior":{
					"ior":1.4500000476837158
				}
			},
			"name":"branch-02",
			"pbrMetallicRoughness":{
				"baseColorTexture":{
					"index":2
				},
				"metallicFactor":0
			}
		}
	],
	"meshes":[
		{
			"name":"BezierCurve.028",
			"primitives":[
				{
					"attributes":{
						"POSITION":0,
						"NORMAL":1,
						"TEXCOORD_0":2
					},
					"indices":3,
					"material":0
				},
				{
					"attributes":{
						"POSITION":4,
						"NORMAL":5,
						"TEXCOORD_0":6
					},
					"indices":7,
					"material":1
				},
				{
					"attributes":{
						"POSITION":8,
						"NORMAL":9,
						"TEXCOORD_0":10
					},
					"indices":11,
					"material":2
				}
			]
		}
	],
	"textures":[
		{
			"sampler":0,
			"source":0
		},
		{
			"sampler":0,
			"source":1
		},
		{
			"sampler":0,
			"source":2
		}
	],
	"images":[
		{
			"mimeType":"image/jpeg",
			"name":"bark",
			"uri":"bark.jpg"
		},
		{
			"mimeType":"image/png",
			"name":"branch-2-01",
			"uri":"branch-2-01.png"
		},
		{
			"mimeType":"image/png",
			"name":"branch-2-02",
			"uri":"branch-2-02.png"
		}
	],
	"accessors":[
		{
			"bufferView":0,
			"componentType":5126,
			"count":164,
			"max":[
				0.5629196166992188,
				7.866107940673828,
				0.9973721504211426
			],
			"min":[
				-0.9602394104003906,
				0,
				-0.6806681156158447
			],
			"type":"VEC3"
		},
		{
			"bufferView":1,
			"componentType":5126,
			"count":164,
			"type":"VEC3"
		},
		{
			"bufferView":2,
			"componentType":5126,
			"count":164,
			"type":"VEC2"
		},
		{
			"bufferView":3,
			"componentType":5123,
			"count":666,
			"type":"SCALAR"
		},
		{
			"bufferView":4,
			"componentType":5126,
			"count":207,
			"max":[
				2.5667781829833984,
				8.63774299621582,
				2.3342103958129883
			],
			"min":[
				-3.0207881927490234,
				0.8532743453979492,
				-2.7317111492156982
			],
			"type":"VEC3"
		},
		{
			"bufferView":5,
			"componentType":5126,
			"count":207,
			"type":"VEC3"
		},
		{
			"bufferView":6,
			"componentType":5126,
			"count":207,
			"type":"VEC2"
		},
		{
			"bufferView":7,
			"componentType":5123,
			"count":552,
			"type":"SCALAR"
		},
		{
			"bufferView":8,
			"componentType":5126,
			"count":270,
			"max":[
				2.9747047424316406,
				8.77813720703125,
				2.98984432220459
			],
			"min":[
				-2.328693389892578,
				1.1863832473754883,
				-2.7433524131774902
			],
			"type":"VEC3"
		},
		{
			"bufferView":9,
			"componentType":5126,
			"count":270,
			"type":"VEC3"
		},
		{
			"bufferView":10,
			"componentType":5126,
			"count":270,
			"type":"VEC2"
		},
		{
			"bufferView":11,
			"componentType":5123,
			"count":720,
			"type":"SCALAR"
		}
	],
	"bufferViews":[
		{
			"buffer":0,
			"byteLength":1968,
			"byteOffset":0,
			"target":34962
		},
		{
			"buffer":0,
			"byteLength":1968,
			"byteOffset":1968,
			"target":34962
		},
		{
			"buffer":0,
			"byteLength":1312,
			"byteOffset":3936,
			"target":34962
		},
		{
			"buffer":0,
			"byteLength":1332,
			"byteOffset":5248,
			"target":34963
		},
		{
			"buffer":0,
			"byteLength":2484,
			"byteOffset":6580,
			"target":34962
		},
		{
			"buffer":0,
			"byteLength":2484,
			"byteOffset":9064,
			"target":34962
		},
		{
			"buffer":0,
			"byteLength":1656,
			"byteOffset":11548,
			"target":34962
		},
		{
			"buffer":0,
			"byteLength":1104,
			"byteOffset":13204,
			"target":34963
		},
		{
			"buffer":0,
			"byteLength":3240,
			"byteOffset":14308,
			"target":34962
		},
		{
			"buffer":0,
			"byteLength":3240,
			"byteOffset":17548,
			"target":34962
		},
		{
			"buffer":0,
			"byteLength":2160,
			"byteOffset":20788,
			"target":34962
		},
		{
			"buffer":0,
			"byteLength":1440,
			"byteOffset":22948,
			"target":34963
		}
	],
	"samplers":[
		{
			"magFilter":9729,
			"minFilter":9987
		}
	],
	"buffers":[
		{
			"byteLength":24388,
			"uri":"tree3.bin"
		}
	]
}
